<svg class="w-full" xmlns="http://www.w3.org/2000/svg" viewBox="0 0 190 42" fill="none"><mask id="a" width="48" height="42" x="0" y="0" maskUnits="userSpaceOnUse" style="mask-type:alpha"><path fill="#fff" fill-rule="evenodd" d="M47.667 0H0v17.715h23.043v6.287H0v17.945h47.667V0Z" clip-rule="evenodd"></path></mask><g fill="#031159" fill-rule="evenodd" clip-rule="evenodd" mask="url(#a)"><path d="m40.764 20.857-9.076-15.45H13.535L4.46 20.857l9.076 15.45h18.153l9.076-15.45Zm-5.943 20.784 12.21-20.784L34.82.073H10.402L-1.807 20.857l12.21 20.784H34.82Z"></path><path d="m27.199 20.857-2.293-3.904h-4.587l-2.294 3.904 2.294 3.904h4.587l2.293-3.904Zm.84 9.237 5.426-9.237-5.427-9.237H17.186l-5.427 9.237 5.427 9.237h10.852Z"></path></g><path fill="#031159" d="M182.964 15.201v3.857h6.221v3.586h-6.221v4.183H190v3.722h-11.681v-19.07H190v3.722h-7.036ZM160.358 30.739c-1.394 0-2.644-.226-3.749-.68-1.104-.452-1.992-1.122-2.662-2.01-.652-.887-.996-1.955-1.032-3.204h4.944c.072.706.317 1.249.733 1.63.417.361.96.543 1.63.543.688 0 1.232-.154 1.63-.462.398-.326.598-.77.598-1.331 0-.471-.163-.86-.489-1.168a3.637 3.637 0 0 0-1.168-.76c-.453-.2-1.105-.426-1.956-.68-1.232-.38-2.237-.76-3.015-1.14-.779-.381-1.449-.942-2.011-1.685-.561-.743-.842-1.711-.842-2.907 0-1.774.643-3.16 1.929-4.156 1.286-1.014 2.961-1.52 5.025-1.52 2.101 0 3.794.506 5.08 1.52 1.286.996 1.974 2.39 2.064 4.184h-5.025c-.036-.616-.263-1.096-.679-1.44-.417-.362-.951-.543-1.603-.543-.561 0-1.014.154-1.358.462-.344.29-.516.715-.516 1.276 0 .616.29 1.096.869 1.44.58.344 1.485.715 2.717 1.114 1.231.416 2.227.814 2.988 1.195.778.38 1.448.932 2.01 1.657.561.724.842 1.657.842 2.798a5.428 5.428 0 0 1-.842 2.96c-.544.888-1.34 1.594-2.391 2.12-1.05.524-2.29.787-3.721.787ZM130.72 11.48v11.409c0 1.14.281 2.019.842 2.634.562.616 1.386.924 2.472.924 1.087 0 1.92-.308 2.499-.924.58-.615.869-1.494.869-2.634v-11.41h4.645v11.382c0 1.703-.362 3.142-1.086 4.32a6.934 6.934 0 0 1-2.934 2.661c-1.213.598-2.571.897-4.074.897-1.503 0-2.853-.29-4.048-.87-1.177-.597-2.109-1.484-2.798-2.661-.688-1.196-1.032-2.644-1.032-4.347V11.48h4.645ZM115.566 11.48V15.2h-7.769v4.02h5.813v3.613h-5.813v7.715h-4.645v-19.07h12.414ZM91.637 11.48v19.069h-4.645v-19.07h4.645ZM66.25 11.48c2.01 0 3.767.398 5.27 1.195 1.503.797 2.662 1.92 3.477 3.368.833 1.43 1.25 3.088 1.25 4.971 0 1.866-.417 3.522-1.25 4.971-.815 1.449-1.983 2.572-3.504 3.369-1.503.796-3.25 1.195-5.242 1.195h-7.145v-19.07h7.145Zm-.298 15.049c1.756 0 3.124-.48 4.101-1.44.978-.96 1.467-2.318 1.467-4.075 0-1.756-.489-3.124-1.467-4.101-.977-.978-2.345-1.467-4.101-1.467h-2.2v11.083h2.2Z"></path></svg>